<svg width="200" height="200" viewBox="0 0 200 200" fill="none" xmlns="http://www.w3.org/2000/svg">
  <!-- Trading Cards Stack -->
  <rect x="85" y="45" width="80" height="110" rx="6" fill="white" stroke="black" stroke-width="8"/>
  <rect x="75" y="35" width="80" height="110" rx="6" fill="white" stroke="black" stroke-width="8"/>
  
  <!-- Pokemon Silhouette on Card -->
  <path d="M 115 60 Q 110 55 105 60 L 105 75 Q 105 85 110 90 Q 115 95 120 90 Q 125 85 125 75 L 125 60 Q 120 55 115 60 Z M 108 65 L 108 70 L 110 70 L 110 65 Z M 120 65 L 120 70 L 122 70 L 122 65 Z" fill="black"/>
  
  <!-- Card Details Lines -->
  <line x1="85" y1="100" x2="145" y2="100" stroke="black" stroke-width="3" opacity="0.3"/>
  <line x1="85" y1="110" x2="135" y2="110" stroke="black" stroke-width="3" opacity="0.3"/>
  <line x1="85" y1="120" x2="140" y2="120" stroke="black" stroke-width="3" opacity="0.3"/>
  
  <!-- Magnifying Glass Handle -->
  <line x1="95" y1="135" x2="50" y2="180" stroke="black" stroke-width="12" stroke-linecap="round"/>
  
  <!-- Magnifying Glass Circle -->
  <circle cx="110" cy="120" r="45" fill="none" stroke="black" stroke-width="10"/>
  <circle cx="110" cy="120" r="42" fill="white" fill-opacity="0.05"/>
  
  <!-- Shine Effect on Glass -->
  <path d="M 85 95 Q 90 90 95 95" stroke="white" stroke-width="4" fill="none" stroke-linecap="round" opacity="0.7"/>
  <path d="M 90 100 Q 92 98 94 100" stroke="white" stroke-width="3" fill="none" stroke-linecap="round" opacity="0.5"/>
</svg>